# xmcd CD database file
#
# Track frame offsets:
#	150
#	9151
#	30506
#	46783
#	65939
#	79358
#	105297
#	122702
#	134350
#	157575
#	174224
#	189472
#	211034
#	224909
#	243384
#	261296
#	281418
#	295737
#
# Disc length: 4219 seconds
#
# Revision: 4
# Processed by: cddbd v1.5.1PL2 Copyright (c) Steve Scherf et al.
# Submitted via: CDex 1.51
#
DISCID=f6107912
DTITLE=Stuck Mojo - HVY1
DYEAR=1999
DGENRE=Metal
TTITLE0=2 Minutes Of Death
TTITLE1=Mental Meltdown
TTITLE2=Monster
TTITLE3=Twisted
TTITLE4=(F.U. Intro) Crooked Figurehead
TTITLE5=Trick
TTITLE6=Rising
TTITLE7=Enemy Territory
TTITLE8=Back In The Saddle
TTITLE9=Throw The Switch
TTITLE10=Tears
TTITLE11=F.O.D.
TTITLE12=Not Promised Tomorrow
TTITLE13=Southern Pride
TTITLE14=Pipebomb
TTITLE15=Reborn (New Studio Track)
TTITLE16=My Will (New Studio Track)
TTITLE17=Change My Ways Chant (Hidden Bonus Track)
EXTD=YEAR: 1999
EXTT0=
EXTT1=
EXTT2=
EXTT3=
EXTT4=
EXTT5=
EXTT6=
EXTT7=
EXTT8=
EXTT9=
EXTT10=
EXTT11=
EXTT12=
EXTT13=
EXTT14=
EXTT15=
EXTT16=
EXTT17=
PLAYORDER=
